<?xml version="1.0" encoding="UTF-8" standalone="no"?>
<!DOCTYPE svg PUBLIC "-//W3C//DTD SVG 1.1//EN"
 "http://www.w3.org/Graphics/SVG/1.1/DTD/svg11.dtd">
<!-- Generated by graphviz version 8.1.0 (20230707.0739)
 -->
<!-- Title: G Pages: 1 -->
<svg width="744pt" height="750pt"
 viewBox="0.00 0.00 743.66 749.51" xmlns="http://www.w3.org/2000/svg" xmlns:xlink="http://www.w3.org/1999/xlink">
<g id="graph0" class="graph" transform="scale(1 1) rotate(0) translate(4 745.51)">
<title>G</title><style>.edge>path:hover{stroke-width:8}</style>
<polygon fill="white" stroke="none" points="-4,4 -4,-745.51 739.66,-745.51 739.66,4 -4,4"/>
<!-- ecs -->
<g id="node1" class="node">
<title>ecs</title><style>.edge>path:hover{stroke-width:8}</style>
<ellipse fill="#c82323" stroke="black" cx="100.76" cy="-579.51" rx="27" ry="18"/>
<text text-anchor="middle" x="100.76" y="-576.01" font-family="Helvetica,sans-Serif" font-size="10.00" fill="#ffffff">ecs</text>
</g>
<!-- game -->
<g id="node11" class="node">
<title>game</title><style>.edge>path:hover{stroke-width:8}</style>
<ellipse fill="#3a883a" stroke="black" cx="335.76" cy="-127" rx="27" ry="18"/>
<text text-anchor="middle" x="335.76" y="-123.5" font-family="Helvetica,sans-Serif" font-size="10.00" fill="#ffffff">game</text>
</g>
<!-- ecs&#45;&gt;game -->
<g id="edge1" class="edge">
<title>ecs&#45;&gt;game</title><style>.edge>path:hover{stroke-width:8}</style>
<path fill="none" stroke="black" d="M156.76,-388.25C169.07,-340.19 164.44,-325.64 156.76,-276.63"/>
<path fill="none" stroke="black" d="M87.4,-563.8C79.71,-553.7 71.75,-539.63 72.76,-525.51"/>
<path fill="none" stroke="black" d="M156.76,-274.63C142.91,-200.81 244.75,-156.61 300.7,-138.14"/>
<polygon fill="#c82323" stroke="black" points="301.43,-141.26 309.9,-134.88 299.31,-134.59 301.43,-141.26"/>
<path fill="none" stroke="black" d="M72.76,-524.51C75.41,-487.52 72.12,-474.71 91.76,-443.25 111.5,-411.64 144.91,-425.6 156.76,-390.25"/>
</g>
<!-- utils_floor_transition -->
<g id="node17" class="node">
<title>utils_floor_transition</title><style>.edge>path:hover{stroke-width:8}</style>
<ellipse fill="#b83db8" stroke="black" cx="156.76" cy="-465.88" rx="55.86" ry="22.63"/>
<text text-anchor="middle" x="156.76" y="-468.38" font-family="Helvetica,sans-Serif" font-size="10.00" fill="#ffffff">utils.</text>
<text text-anchor="middle" x="156.76" y="-456.38" font-family="Helvetica,sans-Serif" font-size="10.00" fill="#ffffff">floor_transition</text>
</g>
<!-- ecs&#45;&gt;utils_floor_transition -->
<g id="edge2" class="edge">
<title>ecs&#45;&gt;utils_floor_transition</title><style>.edge>path:hover{stroke-width:8}</style>
<path fill="none" stroke="black" d="M72.76,-524.51C74.05,-506.52 87.64,-493.72 103.53,-484.82"/>
<polygon fill="#c82323" stroke="black" points="104.71,-487.65 112.08,-480.03 101.57,-481.39 104.71,-487.65"/>
</g>
<!-- ecs_Entity -->
<g id="node2" class="node">
<title>ecs_Entity</title><style>.edge>path:hover{stroke-width:8}</style>
<ellipse fill="#c24747" stroke="black" cx="551.76" cy="-723.51" rx="36.23" ry="18"/>
<text text-anchor="middle" x="551.76" y="-720.01" font-family="Helvetica,sans-Serif" font-size="10.00" fill="#ffffff">ecs.Entity</text>
</g>
<!-- ecs_World -->
<g id="node3" class="node">
<title>ecs_World</title><style>.edge>path:hover{stroke-width:8}</style>
<ellipse fill="#b83d3d" stroke="black" cx="666.76" cy="-579.51" rx="36.23" ry="18"/>
<text text-anchor="middle" x="666.76" y="-576.01" font-family="Helvetica,sans-Serif" font-size="10.00" fill="#ffffff">ecs.World</text>
</g>
<!-- ecs_Entity&#45;&gt;ecs_World -->
<g id="edge3" class="edge">
<title>ecs_Entity&#45;&gt;ecs_World</title><style>.edge>path:hover{stroke-width:8}</style>
<path fill="none" stroke="black" d="M564.73,-706.5C584.75,-681.78 623.31,-634.16 646.87,-605.07"/>
<polygon fill="#c24747" stroke="black" points="650.09,-607.66 653.66,-597.68 644.65,-603.25 650.09,-607.66"/>
</g>
<!-- ecs_world -->
<g id="node6" class="node">
<title>ecs_world</title><style>.edge>path:hover{stroke-width:8}</style>
<ellipse fill="#ac4949" stroke="black" cx="464.76" cy="-651.51" rx="34.43" ry="18"/>
<text text-anchor="middle" x="464.76" y="-648.01" font-family="Helvetica,sans-Serif" font-size="10.00" fill="#ffffff">ecs.world</text>
</g>
<!-- ecs_Entity&#45;&gt;ecs_world -->
<g id="edge4" class="edge">
<title>ecs_Entity&#45;&gt;ecs_world</title><style>.edge>path:hover{stroke-width:8}</style>
<path fill="none" stroke="black" d="M533.31,-707.66C521.12,-697.85 504.94,-684.84 491.36,-673.91"/>
<polygon fill="#c24747" stroke="black" points="493.87,-670.64 483.89,-667.09 489.48,-676.09 493.87,-670.64"/>
</g>
<!-- ecs_World&#45;&gt;game -->
<g id="edge5" class="edge">
<title>ecs_World&#45;&gt;game</title><style>.edge>path:hover{stroke-width:8}</style>
<path fill="none" stroke="black" d="M722.76,-524.51C706.1,-467.21 722.76,-449.92 722.76,-390.25 722.76,-390.25 722.76,-390.25 722.76,-334.25 722.76,-274.59 750.27,-252.95 722.76,-200"/>
</g>
<!-- ecs_World&#45;&gt;utils_floor_transition -->
<g id="edge6" class="edge">
<title>ecs_World&#45;&gt;utils_floor_transition</title><style>.edge>path:hover{stroke-width:8}</style>
<path fill="none" stroke="black" d="M722.76,-524.51C707.15,-470.81 275.58,-499.55 220.76,-488.51 216.3,-487.61 211.72,-486.49 207.16,-485.23"/>
<polygon fill="#b83d3d" stroke="black" points="208.2,-481.59 197.62,-482.09 206.2,-488.3 208.2,-481.59"/>
<path fill="none" stroke="black" d="M693.7,-567.01C710.51,-557.87 728.03,-543.63 722.76,-525.51"/>
</g>
<!-- ecs_component -->
<g id="node4" class="node">
<title>ecs_component</title><style>.edge>path:hover{stroke-width:8}</style>
<ellipse fill="#b65353" stroke="black" cx="49.76" cy="-651.51" rx="49.76" ry="18"/>
<text text-anchor="middle" x="49.76" y="-648.01" font-family="Helvetica,sans-Serif" font-size="10.00" fill="#ffffff">ecs.component</text>
</g>
<!-- ecs_component&#45;&gt;ecs -->
<g id="edge7" class="edge">
<title>ecs_component&#45;&gt;ecs</title><style>.edge>path:hover{stroke-width:8}</style>
<path fill="none" stroke="black" d="M61.85,-633.92C68.19,-625.22 76.07,-614.4 83.08,-604.77"/>
<polygon fill="#b65353" stroke="black" points="86.4,-607.16 89.46,-597.02 80.74,-603.04 86.4,-607.16"/>
</g>
<!-- ecs_entity -->
<g id="node5" class="node">
<title>ecs_entity</title><style>.edge>path:hover{stroke-width:8}</style>
<ellipse fill="#b65353" stroke="black" cx="152.76" cy="-651.51" rx="35.33" ry="18"/>
<text text-anchor="middle" x="152.76" y="-648.01" font-family="Helvetica,sans-Serif" font-size="10.00" fill="#ffffff">ecs.entity</text>
</g>
<!-- ecs_entity&#45;&gt;ecs -->
<g id="edge8" class="edge">
<title>ecs_entity&#45;&gt;ecs</title><style>.edge>path:hover{stroke-width:8}</style>
<path fill="none" stroke="black" d="M140.7,-634.27C134.24,-625.58 126.16,-614.7 118.95,-605"/>
<polygon fill="#b65353" stroke="black" points="121.17,-603.12 112.4,-597.18 115.55,-607.29 121.17,-603.12"/>
</g>
<!-- ecs_world&#45;&gt;ecs -->
<g id="edge9" class="edge">
<title>ecs_world&#45;&gt;ecs</title><style>.edge>path:hover{stroke-width:8}</style>
<path fill="none" stroke="black" d="M432.78,-644.36C365.26,-631.38 208.55,-601.24 137.26,-587.53"/>
<polygon fill="#ac4949" stroke="black" points="138.05,-583.93 127.57,-585.47 136.73,-590.8 138.05,-583.93"/>
</g>
<!-- floor_generators -->
<g id="node7" class="node">
<title>floor_generators</title><style>.edge>path:hover{stroke-width:8}</style>
<ellipse fill="#bcbc2f" stroke="black" cx="388.76" cy="-199" rx="51.11" ry="18"/>
<text text-anchor="middle" x="388.76" y="-195.5" font-family="Helvetica,sans-Serif" font-size="10.00" fill="#000000">floor_generators</text>
</g>
<!-- floor_generators&#45;&gt;game -->
<g id="edge10" class="edge">
<title>floor_generators&#45;&gt;game</title><style>.edge>path:hover{stroke-width:8}</style>
<path fill="none" stroke="black" d="M376.2,-181.41C369.61,-172.71 361.42,-161.89 354.13,-152.26"/>
<polygon fill="#bcbc2f" stroke="black" points="356.33,-150.37 347.5,-144.51 350.75,-154.6 356.33,-150.37"/>
</g>
<!-- floor_generators_dfs_generator -->
<g id="node8" class="node">
<title>floor_generators_dfs_generator</title><style>.edge>path:hover{stroke-width:8}</style>
<ellipse fill="#a4a446" stroke="black" cx="530.76" cy="-275.63" rx="62.23" ry="22.63"/>
<text text-anchor="middle" x="530.76" y="-278.13" font-family="Helvetica,sans-Serif" font-size="10.00" fill="#000000">floor_generators.</text>
<text text-anchor="middle" x="530.76" y="-266.13" font-family="Helvetica,sans-Serif" font-size="10.00" fill="#000000">dfs_generator</text>
</g>
<!-- floor_generators_dfs_generator&#45;&gt;floor_generators -->
<g id="edge11" class="edge">
<title>floor_generators_dfs_generator&#45;&gt;floor_generators</title><style>.edge>path:hover{stroke-width:8}</style>
<path fill="none" stroke="black" d="M496.02,-256.37C474.81,-245.22 447.68,-230.97 426.02,-219.58"/>
<polygon fill="#a4a446" stroke="black" points="427.97,-216.13 417.49,-214.57 424.71,-222.32 427.97,-216.13"/>
</g>
<!-- floor_generators_floor_generator -->
<g id="node9" class="node">
<title>floor_generators_floor_generator</title><style>.edge>path:hover{stroke-width:8}</style>
<ellipse fill="#b6b653" stroke="black" cx="246.76" cy="-275.63" rx="62.23" ry="22.63"/>
<text text-anchor="middle" x="246.76" y="-278.13" font-family="Helvetica,sans-Serif" font-size="10.00" fill="#000000">floor_generators.</text>
<text text-anchor="middle" x="246.76" y="-266.13" font-family="Helvetica,sans-Serif" font-size="10.00" fill="#000000">floor_generator</text>
</g>
<!-- floor_generators_floor_generator&#45;&gt;floor_generators -->
<g id="edge12" class="edge">
<title>floor_generators_floor_generator&#45;&gt;floor_generators</title><style>.edge>path:hover{stroke-width:8}</style>
<path fill="none" stroke="black" d="M281.5,-256.37C302.72,-245.22 329.84,-230.97 351.5,-219.58"/>
<polygon fill="#b6b653" stroke="black" points="352.81,-222.32 360.03,-214.57 349.55,-216.13 352.81,-222.32"/>
</g>
<!-- floor_generators_test_floor -->
<g id="node10" class="node">
<title>floor_generators_test_floor</title><style>.edge>path:hover{stroke-width:8}</style>
<ellipse fill="#a4a446" stroke="black" cx="388.76" cy="-275.63" rx="62.23" ry="22.63"/>
<text text-anchor="middle" x="388.76" y="-278.13" font-family="Helvetica,sans-Serif" font-size="10.00" fill="#000000">floor_generators.</text>
<text text-anchor="middle" x="388.76" y="-266.13" font-family="Helvetica,sans-Serif" font-size="10.00" fill="#000000">test_floor</text>
</g>
<!-- floor_generators_test_floor&#45;&gt;floor_generators -->
<g id="edge13" class="edge">
<title>floor_generators_test_floor&#45;&gt;floor_generators</title><style>.edge>path:hover{stroke-width:8}</style>
<path fill="none" stroke="black" d="M388.76,-252.64C388.76,-244.93 388.76,-236.15 388.76,-228.01"/>
<polygon fill="#a4a446" stroke="black" points="392.26,-228.1 388.76,-218.1 385.26,-228.1 392.26,-228.1"/>
</g>
<!-- main_py -->
<g id="node12" class="node">
<title>main_py</title><style>.edge>path:hover{stroke-width:8}</style>
<ellipse fill="#59a6a6" stroke="black" cx="335.76" cy="-18" rx="30.37" ry="18"/>
<text text-anchor="middle" x="335.76" y="-14.5" font-family="Helvetica,sans-Serif" font-size="10.00" fill="#000000">main.py</text>
</g>
<!-- game&#45;&gt;main_py -->
<g id="edge14" class="edge">
<title>game&#45;&gt;main_py</title><style>.edge>path:hover{stroke-width:8}</style>
<path fill="none" stroke="black" d="M335.76,-108.81C335.76,-92.12 335.76,-66.5 335.76,-46.89"/>
<polygon fill="#3a883a" stroke="black" points="339.26,-47.15 335.76,-37.15 332.26,-47.15 339.26,-47.15"/>
</g>
<!-- save_data -->
<g id="node13" class="node">
<title>save_data</title><style>.edge>path:hover{stroke-width:8}</style>
<ellipse fill="#5353b6" stroke="black" cx="283.76" cy="-199" rx="35.78" ry="18"/>
<text text-anchor="middle" x="283.76" y="-195.5" font-family="Helvetica,sans-Serif" font-size="10.00" fill="#ffffff">save_data</text>
</g>
<!-- save_data&#45;&gt;game -->
<g id="edge15" class="edge">
<title>save_data&#45;&gt;game</title><style>.edge>path:hover{stroke-width:8}</style>
<path fill="none" stroke="black" d="M295.82,-181.76C302.28,-173.07 310.36,-162.19 317.57,-152.49"/>
<polygon fill="#5353b6" stroke="black" points="320.97,-154.78 324.12,-144.67 315.35,-150.61 320.97,-154.78"/>
</g>
<!-- utils -->
<g id="node14" class="node">
<title>utils</title><style>.edge>path:hover{stroke-width:8}</style>
<ellipse fill="#c431c4" stroke="black" cx="211.76" cy="-389.25" rx="27" ry="18"/>
<text text-anchor="middle" x="211.76" y="-385.75" font-family="Helvetica,sans-Serif" font-size="10.00" fill="#ffffff">utils</text>
</g>
<!-- utils&#45;&gt;floor_generators_dfs_generator -->
<g id="edge16" class="edge">
<title>utils&#45;&gt;floor_generators_dfs_generator</title><style>.edge>path:hover{stroke-width:8}</style>
<path fill="none" stroke="black" d="M194.76,-334.25C221.21,-281.03 401.7,-310.95 459.76,-298.25 464.77,-297.16 469.93,-295.88 475.09,-294.51"/>
<polygon fill="#c431c4" stroke="black" points="475.91,-297.63 484.6,-291.57 474.02,-290.89 475.91,-297.63"/>
</g>
<!-- utils&#45;&gt;floor_generators_test_floor -->
<g id="edge17" class="edge">
<title>utils&#45;&gt;floor_generators_test_floor</title><style>.edge>path:hover{stroke-width:8}</style>
<path fill="none" stroke="black" d="M194.76,-334.25C220.11,-283.25 263.18,-314.55 317.76,-298.25 322.33,-296.89 327.06,-295.47 331.81,-294.03"/>
<polygon fill="#c431c4" stroke="black" points="332.63,-297.14 341.19,-290.89 330.6,-290.44 332.63,-297.14"/>
</g>
<!-- utils&#45;&gt;game -->
<g id="edge18" class="edge">
<title>utils&#45;&gt;game</title><style>.edge>path:hover{stroke-width:8}</style>
<path fill="none" stroke="black" d="M194.76,-334.25C208.41,-306.78 161.51,-306.94 156.76,-276.63"/>
<path fill="none" stroke="black" d="M200.47,-372.47C194.23,-361.66 188.83,-347.2 194.76,-335.25"/>
</g>
<!-- utils_Vector -->
<g id="node15" class="node">
<title>utils_Vector</title><style>.edge>path:hover{stroke-width:8}</style>
<ellipse fill="#c247c2" stroke="black" cx="530.76" cy="-389.25" rx="39.39" ry="18"/>
<text text-anchor="middle" x="530.76" y="-385.75" font-family="Helvetica,sans-Serif" font-size="10.00" fill="#ffffff">utils.Vector</text>
</g>
<!-- utils_Vector&#45;&gt;floor_generators_dfs_generator -->
<g id="edge19" class="edge">
<title>utils_Vector&#45;&gt;floor_generators_dfs_generator</title><style>.edge>path:hover{stroke-width:8}</style>
<path fill="none" stroke="black" d="M530.76,-334.25C527.19,-326.63 525.97,-317.8 525.93,-309.37"/>
<polygon fill="#c247c2" stroke="black" points="529.46,-309.82 526.48,-299.66 522.47,-309.47 529.46,-309.82"/>
</g>
<!-- utils_Vector&#45;&gt;floor_generators_test_floor -->
<g id="edge20" class="edge">
<title>utils_Vector&#45;&gt;floor_generators_test_floor</title><style>.edge>path:hover{stroke-width:8}</style>
<path fill="none" stroke="black" d="M534.33,-371.22C535.75,-360.42 535.99,-346.42 530.76,-335.25"/>
<path fill="none" stroke="black" d="M530.76,-334.25C526.69,-325.57 482.2,-308.4 444.09,-295.05"/>
<polygon fill="#c247c2" stroke="black" points="445.65,-291.54 435.06,-291.57 443.36,-298.16 445.65,-291.54"/>
</g>
<!-- utils_constants -->
<g id="node16" class="node">
<title>utils_constants</title><style>.edge>path:hover{stroke-width:8}</style>
<ellipse fill="#b653b6" stroke="black" cx="652.76" cy="-275.63" rx="41.54" ry="22.63"/>
<text text-anchor="middle" x="652.76" y="-278.13" font-family="Helvetica,sans-Serif" font-size="10.00" fill="#ffffff">utils.</text>
<text text-anchor="middle" x="652.76" y="-266.13" font-family="Helvetica,sans-Serif" font-size="10.00" fill="#ffffff">constants</text>
</g>
<!-- utils_constants&#45;&gt;game -->
<g id="edge21" class="edge">
<title>utils_constants&#45;&gt;game</title><style>.edge>path:hover{stroke-width:8}</style>
<path fill="none" stroke="black" d="M683.25,-260.09C707.48,-246.35 735.37,-224.27 722.76,-200"/>
<path fill="none" stroke="black" d="M722.76,-198C690.76,-136.41 465.51,-128.5 374.13,-127.85"/>
<polygon fill="#b653b6" stroke="black" points="374.19,-124.34 364.17,-127.8 374.16,-131.34 374.19,-124.34"/>
</g>
<!-- utils_floor_transition&#45;&gt;game -->
<g id="edge22" class="edge">
<title>utils_floor_transition&#45;&gt;game</title><style>.edge>path:hover{stroke-width:8}</style>
<path fill="none" stroke="black" d="M153.93,-442.97C152.67,-427.91 152.33,-407.58 156.76,-390.25"/>
</g>
<!-- utils_floor_transition&#45;&gt;utils -->
<g id="edge23" class="edge">
<title>utils_floor_transition&#45;&gt;utils</title><style>.edge>path:hover{stroke-width:8}</style>
<path fill="none" stroke="black" d="M172.37,-443.7C179.11,-434.55 187.03,-423.81 193.99,-414.36"/>
<polygon fill="#b83db8" stroke="black" points="197.19,-416.92 200.31,-406.8 191.56,-412.77 197.19,-416.92"/>
</g>
<!-- utils_vector -->
<g id="node18" class="node">
<title>utils_vector</title><style>.edge>path:hover{stroke-width:8}</style>
<ellipse fill="#b653b6" stroke="black" cx="267.76" cy="-465.88" rx="37.58" ry="18"/>
<text text-anchor="middle" x="267.76" y="-462.38" font-family="Helvetica,sans-Serif" font-size="10.00" fill="#ffffff">utils.vector</text>
</g>
<!-- utils_vector&#45;&gt;utils -->
<g id="edge24" class="edge">
<title>utils_vector&#45;&gt;utils</title><style>.edge>path:hover{stroke-width:8}</style>
<path fill="none" stroke="black" d="M255.61,-448.69C248.1,-438.68 238.31,-425.64 229.89,-414.42"/>
<polygon fill="#b653b6" stroke="black" points="232.31,-412.8 223.5,-406.9 226.71,-417 232.31,-412.8"/>
</g>
</g>
</svg>
